<?xml version="1.0" encoding="UTF-8" standalone="no"?><!DOCTYPE svg PUBLIC "-//W3C//DTD SVG 1.1//EN" "http://www.w3.org/Graphics/SVG/1.1/DTD/svg11.dtd"><svg width="100%" height="100%" viewBox="0 0 31 46" version="1.1" xmlns="http://www.w3.org/2000/svg" xmlns:xlink="http://www.w3.org/1999/xlink" xml:space="preserve" xmlns:serif="http://www.serif.com/" style="fill-rule:evenodd;clip-rule:evenodd;stroke-linejoin:round;stroke-miterlimit:2;"><path d="M22.096,36.895c-0.237,0.315 -2.774,3.381 -8.321,2.909c-5.548,-0.472 -8.56,-8.726 -8.56,-8.726c0,-0 -3.091,-7.862 0.476,-15.802c3.566,-7.94 9.615,-7.721 9.615,-7.721l0,16.212l7.711,-0.062l1.596,-23.703c-12.502,-0.158 -20.444,11.949 -20.444,11.949c0,-0 -8.413,10.377 -1.337,22.562c7.077,12.185 18.714,11.006 18.714,11.006l0.592,-8.773c-0.015,0.082 -0.029,0.133 -0.042,0.149Zm7.903,-0.377c0,-0.013 0.001,-0.026 0.001,-0.039c0,-4.277 -3.468,-7.744 -7.745,-7.744c-4.278,-0 -7.745,3.467 -7.745,7.744l0,0.353l15.489,-0.314Z" style="fill:#212121;fill-rule:nonzero;"/></svg>